:SAMPLES-PER-SECOND 30
:FULLY-SPECIFIED
:DEGREES
371
root  -4.07645 39.4458 6.07792 -176.403 64.3934 -178.454
RightUpLeg  -12.3057 -13.4221 -6.62873
RightLeg  8.1804 -11.1935 3.20616
RightFoot  2.97649 -0.244041 2.10283
RightToes  -8.73116e-010 0 -3.6325e-017
Spine  12.8887 -3.09803 5.28308
Spine1  6.15712 -2.76507 0.403774
HEad  -7.3072 -0.453417 -3.92237
LeftShoulder1  -0.28929 4.33391 -28.6485
LeftArm  2.98067 4.21863 -48.4096
LeftForeArm  29.0803 -37.3151 -6.76365
LeftHand  -0.138541 0.093397 3.06019
RightShoulder  -0.564527 -5.16306 27.2334
RightArm  16.5057 -8.12929 43.8156
RightForeArm  6.18115 14.2219 6.03041
RightHand  -0.353833 2.25389 -5.57842
LeftUpLeg  7.59451 12.2584 12.6712
LeftLeg  12.351 12.4947 3.28704
LeftFoot  -10.2652 0.0978705 -3.89271
LeftToes  -5.63919e-011 3.32596e-011 1.92487e-011
372
root  -5.02483 39.3401 5.72923 -176.264 60.6703 -178.338
RightUpLeg  -12.3494 -14.3689 -8.15216
RightLeg  7.61639 -13.6377 3.12987
RightFoot  4.64573 -0.398986 3.06807
RightToes  -8.73116e-010 0 -3.6325e-017
Spine  12.638 -2.94096 5.32652
Spine1  6.21584 -2.61168 0.334789
HEad  -7.88043 -3.66408 -3.1684
LeftShoulder1  -0.343152 4.4704 -29.3776
LeftArm  6.15823 3.61431 -48.5977
LeftForeArm  27.6186 -36.1877 -6.54339
LeftHand  -0.128271 -0.0902134 2.7522
RightShoulder  -0.477764 -4.93545 26.5305
RightArm  16.5202 -8.55447 44.2297
RightForeArm  5.3532 14.8752 5.84208
RightHand  -0.302485 2.27317 -4.77542
LeftUpLeg  6.70221 13.3265 12.8403
LeftLeg  13.1278 15.2039 3.99117
LeftFoot  -10.1175 0.0964368 -2.74816
LeftToes  -5.63919e-011 3.32596e-011 1.92487e-011
373
root  -6.02349 39.1652 5.31947 -176.858 56.5412 -178.403
RightUpLeg  -11.836 -16.1687 -10.1432
RightLeg  7.82629 -15.6888 2.91452
RightFoot  5.80675 -0.612707 4.32131
RightToes  -8.73116e-010 0 -3.6325e-017
Spine  12.7369 -2.95796 5.82694
Spine1  6.29862 -2.42436 -0.324641
HEad  -8.61582 -7.14393 -2.26668
LeftShoulder1  -0.299781 4.33694 -29.7736
LeftArm  8.13498 3.63091 -48.7273
LeftForeArm  26.7534 -35.0027 -6.27941
LeftHand  -0.118854 0.351736 2.72304
RightShoulder  -0.493295 -4.99096 26.3105
RightArm  17.6216 -8.23597 44.0042
RightForeArm  4.29743 15.3911 5.86445
RightHand  -0.29796 2.25383 -4.67778
LeftUpLeg  6.45945 13.7725 12.6448
LeftLeg  12.8743 15.9651 3.95565
LeftFoot  -9.9819 0.116153 -6.1496
LeftToes  -5.63919e-011 3.32596e-011 1.92487e-011
374
root  -7.03436 39.0166 4.86652 -178.376 52.6616 -179.449
RightUpLeg  -11.1643 -19.2651 -12.565
RightLeg  8.23044 -15.9688 2.16747
RightFoot  6.95605 -0.838324 5.49344
RightToes  -8.73116e-010 0 -3.6325e-017
Spine  13.0037 -2.82747 5.19824
Spine1  6.27472 -2.29256 -0.84582
HEad  -8.64045 -10.1502 -2.26973
LeftShoulder1  -0.441468 4.715 -30.321
LeftArm  10.5882 3.44676 -48.4743
LeftForeArm  24.8387 -33.4194 -5.98421
LeftHand  -0.114159 0.320865 2.60097
RightShoulder  -0.445646 -4.8634 25.825
RightArm  18.9456 -7.96539 43.4608
RightForeArm  3.31402 16.8565 5.56531
RightHand  -0.40928 3.15258 -5.79853
LeftUpLeg  5.57026 13.8562 11.4859
LeftLeg  13.1284 12.0999 2.83747
LeftFoot  -12.962 -0.0455523 -9.35727
LeftToes  -5.63919e-011 3.32596e-011 1.92487e-011
375
root  -7.98419 38.8627 4.41911 178.523 49.6665 177.59
RightUpLeg  -11.6726 -22.8123 -15.5184
RightLeg  10.7621 -13.9045 -0.36639
RightFoot  6.41345 -1.04713 7.01709
RightToes  -8.73116e-010 0 -3.6325e-017
Spine  13.4181 -2.26504 2.98662
Spine1  6.27466 -1.75218 -1.76067
HEad  -9.12382 -12.7489 -1.55997
LeftShoulder1  -0.447697 4.72479 -30.5099
LeftArm  12.8818 3.15226 -47.948
LeftForeArm  21.0707 -30.3093 -5.39643
LeftHand  -0.116007 0.403084 2.68141
RightShoulder  -0.566902 -5.1828 27.0208
RightArm  20.643 -6.1392 41.5857
RightForeArm  3.16561 17.5226 5.50335
RightHand  -0.353107 2.81397 -5.2117
LeftUpLeg  3.75949 16.2804 9.19909
LeftLeg  16.2071 6.25682 1.67616
LeftFoot  -14.7865 -0.156819 -8.15347
LeftToes  -5.63919e-011 3.32596e-011 1.92487e-011
376
root  -8.83751 38.7582 3.89776 175.822 47.1895 174.749
RightUpLeg  -12.3582 -20.8421 -18.6048
RightLeg  13.0484 -12.3372 -2.94409
RightFoot  3.05172 -1.12907 9.13519
RightToes  -8.73116e-010 0 -3.6325e-017
Spine  13.3662 -1.64218 1.37143
Spine1  6.48323 -1.03805 -2.83322
HEad  -9.42653 -15.1134 -2.00612
LeftShoulder1  -0.472587 4.76442 -31.3478
LeftArm  16.2145 1.8571 -46.3661
LeftForeArm  14.6547 -25.002 -4.82598
LeftHand  -0.106561 0.99644 2.69316
RightShoulder  -0.554635 -5.17226 26.4673
RightArm  17.1549 -5.99856 42.3323
RightForeArm  4.2573 17.4028 5.16325
RightHand  -0.446791 3.66373 -5.99463
LeftUpLeg  2.46788 14.8737 5.15213
LeftLeg  18.0662 5.90745 2.04474
LeftFoot  -15.6747 -0.150197 -6.44162
LeftToes  -5.63919e-011 3.32596e-011 1.92487e-011
377
root  -9.57729 38.7939 3.30612 175.12 45.5193 174.755
RightUpLeg  -12.0981 -11.6148 -19.916
RightLeg  13.3825 -8.7822 -3.07681
RightFoot  -1.22617 -0.736065 7.95835
RightToes  -8.73116e-010 0 -3.6325e-017
Spine  13.0782 -1.42073 2.63517
Spine1  6.78656 -0.135667 -5.32109
HEad  -9.11436 -16.3742 -2.54277
LeftShoulder1  -0.46827 4.76067 -31.0887
LeftArm  11.8319 1.13354 -45.2163
LeftForeArm  14.7224 -17.7402 -6.23334
LeftHand  -0.0792207 2.11684 2.49045
RightShoulder  -0.57139 -5.21294 26.6543
RightArm  14.4258 -5.86145 42.8007
RightForeArm  3.25745 17.5111 4.90746
RightHand  -0.5019 3.37059 -6.89524
LeftUpLeg  2.30642 12.8249 3.12068
LeftLeg  18.8773 6.85038 2.53492
LeftFoot  -16.0013 -0.0870441 -4.47275
LeftToes  -5.63919e-011 3.32596e-011 1.92487e-011
378
root  -10.1426 38.9135 2.6452 174.607 44.3082 175.226
RightUpLeg  -12.3108 -1.46381 -20.0182
RightLeg  14.599 -2.63073 -1.49336
RightFoot  -3.58182 -0.197857 2.78009
RightToes  -8.73116e-010 0 -3.6325e-017
Spine  12.7114 -1.19215 3.34388
Spine1  6.86268 0.356569 -6.33149
HEad  -8.02739 -16.545 -3.51383
LeftShoulder1  -0.530955 4.90493 -31.7483
LeftArm  -2.36483 0.643936 -42.9186
LeftForeArm  24.2124 -8.67015 -8.79989
LeftHand  -0.0764781 3.01158 2.89638
RightShoulder  -0.507976 -5.04286 26.1721
RightArm  13.6086 -5.5608 43.7195
RightForeArm  1.72548 17.5231 4.90062
RightHand  -0.512048 3.93483 -6.63617
LeftUpLeg  3.67456 11.7334 2.14169
LeftLeg  17.9503 7.30909 2.20647
LeftFoot  -16.0335 -0.0332664 -3.16585
LeftToes  -5.63919e-011 3.32596e-011 1.92487e-011
379
root  -10.5136 38.9467 2.05326 174.501 42.334 175.687
RightUpLeg  -12.7704 4.06435 -18.9534
RightLeg  16.9134 1.83255 0.472777
RightFoot  -5.16939 -0.326262 5.41098
RightToes  -8.73116e-010 0 -3.6325e-017
Spine  12.3993 -1.38677 2.55916
Spine1  5.93292 -0.0111104 -6.65415
HEad  -7.11314 -16.1676 -3.48579
LeftShoulder1  -0.476624 4.78885 -30.9516
LeftArm  -6.45724 2.40628 -41.4527
LeftForeArm  23.0032 -3.30798 -7.38311
LeftHand  -0.0347948 4.45596 3.16332
RightShoulder  -0.574891 -5.20616 27.0173
RightArm  16.053 -4.56496 43.547
RightForeArm  0.28198 18.376 5.05865
RightHand  -0.460123 3.04793 -6.56483
LeftUpLeg  4.50132 10.8238 1.63287
LeftLeg  17.4707 6.60205 1.43361
LeftFoot  -16.3296 0.0163212 -1.87128
LeftToes  -5.63919e-011 3.32596e-011 1.92487e-011
380
root  -10.8157 39.0014 1.4893 175.058 39.6955 176.468
RightUpLeg  -13.6513 4.35256 -16.2415
RightLeg  20.2234 3.46483 1.19257
RightFoot  -6.3761 -0.354352 7.10645
RightToes  -8.73116e-010 0 -3.6325e-017
Spine  11.6157 -1.7324 0.753346
Spine1  5.63888 -1.05733 -4.75214
HEad  -7.5133 -15.7539 -2.50438
LeftShoulder1  -0.445265 4.71251 -30.697
LeftArm  -7.22245 4.39822 -39.486
LeftForeArm  18.8558 -0.363004 -6.59052
LeftHand  0.0535439 7.35263 5.43802
RightShoulder  -0.553625 -5.16966 26.463
RightArm  15.8392 -5.06156 44.9818
RightForeArm  2.05588 20.9989 4.70708
RightHand  -0.521273 4.04619 -6.65795
LeftUpLeg  4.83408 9.93876 1.32099
LeftLeg  16.907 5.3284 0.867494
LeftFoot  -16.461 0.0695635 -0.649663
LeftToes  -5.63919e-011 3.32596e-011 1.92487e-011
381
root  -11.0998 39.0673 0.909056 175.62 37.2609 177.211
RightUpLeg  -14.9194 2.41305 -12.8998
RightLeg  24.1103 1.74157 0.620301
RightFoot  -7.05028 -0.284146 6.30667
RightToes  -8.73116e-010 0 -3.6325e-017
Spine  11.0968 -2.08803 -0.995018
Spine1  5.48823 -2.09201 -2.56813
HEad  -9.41754 -15.3027 -0.903646
LeftShoulder1  -0.345155 4.44975 -30.3055
LeftArm  -7.0101 6.94848 -37.2404
LeftForeArm  17.325 -0.014844 -6.57966
LeftHand  0.0531362 7.61319 4.61904
RightShoulder  -0.601367 -5.31332 26.502
RightArm  15.8727 -5.03786 45.7561
RightForeArm  3.26739 23.6719 4.88674
RightHand  -0.61582 4.68133 -7.37822
LeftUpLeg  5.2723 9.12109 0.93328
LeftLeg  16.1872 4.05497 0.589007
LeftFoot  -16.4171 0.120101 0.490255
LeftToes  -5.63919e-011 3.32596e-011 1.92487e-011
382
root  -11.3595 39.1211 0.305479 175.665 35.3776 177.606
RightUpLeg  -16.1888 -0.0580779 -9.35774
RightLeg  27.5504 -1.03597 -0.802399
RightFoot  -7.12205 -0.229759 4.91605
RightToes  -8.73116e-010 0 -3.6325e-017
Spine  10.8141 -2.27815 -2.37471
Spine1  5.93508 -2.78074 -0.79722
HEad  -11.7395 -14.7511 0.331442
LeftShoulder1  -0.237951 4.1662 -29.8006
LeftArm  -5.95873 9.26867 -35.1239
LeftForeArm  17.0618 -1.26598 -7.1269
LeftHand  0.0208179 7.48187 3.16209
RightShoulder  -0.602498 -5.32082 26.4194
RightArm  14.7764 -5.28227 46.8134
RightForeArm  5.67156 26.4799 5.39249
RightHand  -0.557213 4.46617 -6.83674
LeftUpLeg  6.266 8.41433 0.298942
LeftLeg  15.2951 3.3721 0.555714
LeftFoot  -16.3351 0.148347 1.15068
LeftToes  -5.63919e-011 3.32596e-011 1.92487e-011
383
root  -11.6 39.1273 -0.334128 175.777 34.0208 177.865
RightUpLeg  -17.5225 -2.29614 -5.7278
RightLeg  29.3591 -1.95074 -1.40497
RightFoot  -7.53483 -0.170645 3.56522
RightToes  -8.73116e-010 0 -3.6325e-017
Spine  10.6198 -2.27586 -3.05211
Spine1  5.98182 -3.05763 0.440567
HEad  -14.2351 -14.7796 1.39656
LeftShoulder1  -0.256591 4.21279 -30.016
LeftArm  -5.07827 10.4691 -33.2805
LeftForeArm  17.4902 -1.99803 -7.58504
LeftHand  0.00897207 6.92362 3.18094
RightShoulder  -0.554772 -5.19503 26.035
RightArm  14.5686 -5.86741 47.8045
RightForeArm  5.96726 28.9003 5.94501
RightHand  -0.588373 4.54503 -7.1463
LeftUpLeg  7.24745 8.11319 -0.306656
LeftLeg  14.4662 2.78996 0.363391
LeftFoot  -16.5179 0.189721 2.0028
LeftToes  -5.63919e-011 3.32596e-011 1.92487e-011
